<svg fill="none" height="1399" viewBox="0 0 2099 1399" width="2099" xmlns="http://www.w3.org/2000/svg"><path d="m0 0h2098.17v1398.78h-2098.17z" fill="#33393d"/><g fill="#fff"><path d="m375.084 305.292h-87.883v656.708h-92.712v-656.708h-87.883v-77.26h268.478zm310.873 598.763-57.945 57.945h-155.485l-57.945-57.945v-676.023h92.711v635.462l19.315 19.315h47.322l19.315-19.315v-635.462h92.712zm62.509 57.945v-733.968h228.882v79.191h-136.17v243.369h118.787v79.191h-118.787v253.026h138.102v79.191zm494.504-733.968 57.94 57.945v243.368l-57.94 57.945 57.94 57.945v258.82l-57.94 57.945h-214.4v-733.968zm-54.09 322.56 19.32-19.315v-206.67l-19.32-19.315h-67.6v245.3zm0 77.259h-67.6v254.958h67.6l19.32-19.315v-216.328zm445-341.874v618.078l-57.95 57.945h-161.28l-57.94-57.945v-618.078l57.94-57.945h161.28zm-112.03 21.246h-53.12l-19.31 19.315v536.956l19.31 19.315h53.12l19.31-19.315v-536.956zm172.56 654.777v-733.968h214.39l57.95 57.945v305.176l-51.19 51.185 57.95 319.662h-89.82l-56.97-312.902h-39.6v312.902zm160.31-388.231 19.32-19.314v-229.848l-19.32-19.315h-67.6v268.477z"/><path d="m1280.95 1216.94-20.63-63.49h-66.75l54-39.23-20.62-63.48 54 39.23 54-39.23-20.63 63.48 54 39.23h-66.75z"/><path d="m1081.89 1035.09 20.63 63.49h66.75l-54 39.23 20.62 63.48-54-39.23-54 39.23 20.63-63.48-54-39.23h66.75z"/><path d="m875.185 1216.94-20.626-63.49h-66.747l54-39.23-20.627-63.48 54 39.23 54-39.23-20.626 63.48 54 39.23h-66.747z"/></g></svg>